$ This is a beam Launch Vehicle with a Cross at the Base for Multipoint Liftoff
$ English units: Inches and lbs (weight)
$ Thrust Grid: 1001
$ Aero Grids: 1001, 1005, 1009, 1013, 1017, 1021
$ Pad Attach Grids: 1101-1104
$ Outputs:
$   Acceleration Grids: 1001, 1009, 1021
$   Beam Forces: 1001 (End A), 1011 (End B), 1020 End B, 1101-1104 (End B) 
$
$                              |
$                              |
$                              |
$                    X         |
$                    ^         |
$                    |         |
$                    |____>Z   |
$                    /         |
$                   /          |
$                   Y          |
$                              | 
$                             >|<
$
GRID        1001       0      0.      0.      0.       0
GRID        1002       0     50.      0.      0.       0
GRID        1003       0    100.      0.      0.       0
GRID        1004       0    150.      0.      0.       0
GRID        1005       0    200.      0.      0.       0
GRID        1006       0    250.      0.      0.       0
GRID        1007       0    300.      0.      0.       0
GRID        1008       0    350.      0.      0.       0
GRID        1009       0    400.      0.      0.       0
GRID        1010       0    450.      0.      0.       0
GRID        1011       0    500.      0.      0.       0
GRID        1012       0    550.      0.      0.       0
GRID        1013       0    600.      0.      0.       0
GRID        1014       0    650.      0.      0.       0
GRID        1015       0    700.      0.      0.       0
GRID        1016       0    750.      0.      0.       0
GRID        1017       0    800.      0.      0.       0
GRID        1018       0    850.      0.      0.       0
GRID        1019       0    900.      0.      0.       0
GRID        1020       0    950.      0.      0.       0
GRID        1021       0   1000.      0.      0.       0
GRID        1101       0      0.     36.     36.       0
GRID        1102       0      0.    -36.     36.       0
GRID        1103       0      0.    -36.    -36.       0
GRID        1104       0      0.     36.    -36.       0
$ Main LV
CBEAM       1001     101    1001    1002      0.      1.      0.
CBEAM       1002     102    1002    1003      0.      1.      0.
CBEAM       1003     102    1003    1004      0.      1.      0.
CBEAM       1004     102    1004    1005      0.      1.      0.
CBEAM       1005     102    1005    1006      0.      1.      0.
CBEAM       1006     102    1006    1007      0.      1.      0.
CBEAM       1007     103    1007    1008      0.      1.      0.
CBEAM       1008     103    1008    1009      0.      1.      0.
CBEAM       1009     103    1009    1010      0.      1.      0.
CBEAM       1010     103    1010    1011      0.      1.      0.
CBEAM       1011     103    1011    1012      0.      1.      0.
CBEAM       1012     103    1012    1013      0.      1.      0.
CBEAM       1013     103    1013    1014      0.      1.      0.
CBEAM       1014     103    1014    1015      0.      1.      0.
CBEAM       1015     103    1015    1016      0.      1.      0.
CBEAM       1016     103    1016    1017      0.      1.      0.
CBEAM       1017     104    1017    1018      0.      1.      0.
CBEAM       1018     104    1018    1019      0.      1.      0.
CBEAM       1019     104    1019    1020      0.      1.      0.
CBEAM       1020     104    1020    1021      0.      1.      0.
PBEAML       101     999            TUBE
             50.   49.50
PBEAML       102     999            TUBE
             50.   49.80
PBEAML       103     999            TUBE
             50.   49.95
PBEAML       104     999            TUBE
             50.   49.90
$ Base Cross: Attach to Pad at 1101-1104
CBEAM       1101     111    1001    1101      1.      0.      0.
CBEAM       1102     111    1001    1102      1.      0.      0.
CBEAM       1103     111    1001    1103      1.      0.      0.
CBEAM       1104     111    1001    1104      1.      0.      0.
PBEAML       111     999             BAR
             10.     10.
$
$ Aluminum-like Property
MAT1         999 1.5E+07             .33      .1
$
$ Liquid Mass
CONM2       1301    1001       0  50000.  
           1.E+7           1.E+7                   1.E+7
CONM2       1302    1002       0  40000.  
           1.E+7           1.E+7                   1.E+7
CONM2       1303    1003       0  40000.  
           1.E+7           1.E+7                   1.E+7
CONM2       1304    1004       0  40000.  
           1.E+7           1.E+7                   1.E+7
CONM2       1305    1005       0  40000.  
           1.E+7           1.E+7                   1.E+7
CONM2       1306    1006       0  40000.  
           1.E+7           1.E+7                   1.E+7
CONM2       1307    1007       0  40000.  
           1.E+7           1.E+7                   1.E+7
CONM2       1308    1008       0  40000.  
           1.E+7           1.E+7                   1.E+7
CONM2       1309    1009       0  40000.  
           1.E+7           1.E+7                   1.E+7
CONM2       1310    1010       0  40000.  
           1.E+7           1.E+7                   1.E+7
CONM2       1311    1011       0  20000.  
           1.E+7           1.E+7                   1.E+7
CONM2       1312    1012       0  20000.  
           1.E+7           1.E+7                   1.E+7
CONM2       1313    1013       0  20000.  
           1.E+7           1.E+7                   1.E+7
CONM2       1314    1014       0  20000.  
           1.E+7           1.E+7                   1.E+7
CONM2       1315    1015       0  20000.  
           1.E+7           1.E+7                   1.E+7
CONM2       1316    1016       0  20000.  
           1.E+7           1.E+7                   1.E+7
CONM2       1317    1017       0  20000.  
           1.E+7           1.E+7                   1.E+7
CONM2       1318    1018       0  20000.  
           1.E+7           1.E+7                   1.E+7
CONM2       1319    1019       0  20000.  
           1.E+7           1.E+7                   1.E+7
CONM2       1320    1020       0  20000.  
           1.E+7           1.E+7                   1.E+7
$
$ Small masses to allow beam-end rotations
CONM2       1321    1021       0   1.E-2  
           1.E-2           1.E-2                   1.E-2
CONM2       1331    1101       0   1.E-2  
           1.E-2           1.E-2                   1.E-2
CONM2       1332    1102       0   1.E-2  
           1.E-2           1.E-2                   1.E-2
CONM2       1333    1103       0   1.E-2  
           1.E-2           1.E-2                   1.E-2
CONM2       1334    1104       0   1.E-2  
           1.E-2           1.E-2                   1.E-2
$
$ Small Offset to make slightly asymmetric
GRID        1718       0    850.     10.     10.       0
CBUSH       1718    1700    1018    1718                               0
PBUSH       1700       K    1.E9    1.E9    1.E9    1.E9    1.E9    1.E9
CONM2       1719    1718       0  10000.  
          10000.          10000.                  10000.
$
$ Damping for Coupled Damping
CBUSH       1501    1500    1001    1002                               0
CBUSH       1502    1500    1004    1005                               0
CBUSH       1503    1500    1008    1009                               0
CBUSH       1504    1500    1012    1013                               0
CBUSH       1505    1505    1015    1016                               0
CBUSH       1506    1500    1019    1020                               0
CBUSH       1507    1500    1010    1718                               0
PBUSH       1500       B    1.E3    1.E3    1.E3    1.E3    1.E3    1.E3
PBUSH       1505       B    1.E4    1.E4    1.E4
$
